<?xml version="1.0" encoding="UTF-8"?>
<svg width="30px" height="29px" viewBox="0 0 30 29" version="1.1" xmlns="http://www.w3.org/2000/svg" xmlns:xlink="http://www.w3.org/1999/xlink">
    <!-- Generator: Sketch 55.2 (78181) - https://sketchapp.com -->
    <title>noun_pressure_1928050 copy</title>
    <desc>Created with Sketch.</desc>
    <g id="Page-1" stroke="none" stroke-width="1" fill="none" fill-rule="evenodd">
        <g id="Indy500-Demo-V2-Weather-Info" transform="translate(-586.000000, -320.000000)" fill="#FFFFFF" fill-rule="nonzero">
            <g id="WeatherInfo" transform="translate(320.000000, 73.000000)">
                <g id="noun_pressure_1928050-copy" transform="translate(266.000000, 247.000000)">
                    <path d="M13,11 L13,1.07142857 C13,0.479694911 13.4477153,0 14,0 C14.5522847,0 15,0.479694911 15,1.07142857 L15,11 L17.7619467,11 C18.2240714,10.9977602 18.6486879,11.2298828 18.8615664,11.6011389 C19.074445,11.972395 19.0397433,12.4202766 18.7717004,12.7610075 L15.0035951,17.5312876 C14.772603,17.8253429 14.3986311,18 14,18 C13.6013657,18 13.2273938,17.8253429 12.9964017,17.5312876 L9.22829633,12.7610075 C8.96154045,12.4219092 8.92579729,11.9765249 9.1356118,11.606095 C9.34542631,11.235665 9.76582536,11.0019349 10.225736,11 L13,11 Z M28.9285714,26 L1.07142857,26 C0.479694911,26 0,25.5522847 0,25 C0,24.4477153 0.479694911,24 1.07142857,24 L28.9285714,24 C29.5203051,24 30,24.4477153 30,25 C30,25.5522847 29.5203051,26 28.9285714,26 Z M28.9285714,29 L1.07142857,29 C0.479694911,29 0,28.5522847 0,28 C0,27.4477153 0.479694911,27 1.07142857,27 L28.9285714,27 C29.5203051,27 30,27.4477153 30,28 C30,28.5522847 29.5203051,29 28.9285714,29 Z M1.07426977,23 C0.480966958,23 0,22.4963203 0,21.875 C0,21.2536797 0.480966958,20.75 1.07426977,20.75 L25.5998486,20.75 C26.522489,20.7376381 27.3571332,20.1738702 27.7483881,19.29875 C27.9170204,18.6344559 27.7864437,17.9258786 27.3938791,17.375 C26.9818191,16.7323153 26.3146365,16.3188899 25.5783632,16.25 C24.6336691,16.3481759 23.8126668,16.971511 23.4298236,17.88125 C23.1628374,18.4373317 22.5159368,18.6614692 21.9849308,18.381875 C21.4539248,18.1022808 21.2398945,17.4248317 21.5068808,16.86875 C22.2513881,15.1708173 23.8488633,14.0598987 25.6320767,14 C27.0443143,14.0880639 28.3377861,14.8567522 29.1341961,16.08125 C29.9386189,17.1869974 30.2011083,18.623896 29.8432142,19.9625 C29.1810559,21.785057 27.5156294,22.9924921 25.6535621,23 L1.07426977,23 Z" id="Path-2"></path>
                </g>
            </g>
        </g>
    </g>
</svg>