<?xml version="1.0" encoding="UTF-8"?>
<svg width="30px" height="30px" viewBox="0 0 30 30" version="1.1" xmlns="http://www.w3.org/2000/svg" xmlns:xlink="http://www.w3.org/1999/xlink">
    <!-- Generator: Sketch 55.2 (78181) - https://sketchapp.com -->
    <title>noun_humidity_2500693 copy</title>
    <desc>Created with Sketch.</desc>
    <g id="Page-1" stroke="none" stroke-width="1" fill="none" fill-rule="evenodd">
        <g id="Indy500-Demo-V2-Weather-Info" transform="translate(-586.000000, -212.000000)" fill="#FFFFFF" fill-rule="nonzero">
            <g id="WeatherInfo" transform="translate(320.000000, 73.000000)">
                <g id="noun_humidity_2500693-copy" transform="translate(266.000000, 139.000000)">
                    <path d="M27.8960427,12.08 L19.5490641,0.283333333 C19.4257261,0.103333333 19.2223852,0 19.0057104,0 C18.7890357,0 18.5856947,0.103333333 18.4623568,0.283333333 L10.1153781,12.08 C9.59202521,12.82 9.17200951,13.61 8.84199718,14.43 C7.49861363,13.1966667 5.40520204,13.2266667 4.10515345,14.53 C3.28845625,15.3466667 1.95840654,15.3466667 1.14170934,14.53 C0.881699624,14.27 0.458350466,14.27 0.198340747,14.53 C-0.0616689718,14.79 -0.0616689718,15.2133333 0.198340747,15.4733333 C1.53505738,16.81 3.70847195,16.81 5.04518859,15.4733333 C5.86188578,14.6566667 7.1919355,14.6566667 8.00863269,15.4733333 C8.12863718,15.5933333 8.25864204,15.7 8.39198036,15.7966667 C8.26864241,16.2733333 8.17197213,16.7566667 8.10863643,17.2466667 C6.81858821,16.5766667 5.18519382,16.78 4.10515345,17.8633333 C3.28845625,18.68 1.95840654,18.68 1.14170934,17.8633333 C0.881699624,17.6033333 0.458350466,17.6033333 0.198340747,17.8633333 C-0.0616689718,18.1233333 -0.0616689718,18.5466667 0.198340747,18.8066667 C1.53505738,20.1433333 3.70847195,20.1433333 5.04518859,18.8066667 C5.86188578,17.99 7.1919355,17.99 8.00863269,18.8066667 C8.01196615,18.81 8.01196615,18.81 8.01529961,18.8133333 C8.02196652,19.4166667 8.07196839,20.0166667 8.17197213,20.6166667 C6.87192354,19.9033333 5.20186111,20.0966667 4.10181999,21.1966667 C3.2851228,22.0133333 1.95507308,22.0133333 1.13837589,21.1966667 C0.878366166,20.9366667 0.455017008,20.9366667 0.195007289,21.1966667 C-0.0650024298,21.4566667 -0.0650024298,21.88 0.195007289,22.14 C1.53172392,23.4766667 3.7051385,23.4766667 5.04185513,22.14 C5.85855232,21.3233333 7.18860204,21.3233333 8.00529924,22.14 C8.221974,22.3566667 8.45864951,22.5333333 8.71199232,22.68 C8.85533101,23.0766667 9.01533699,23.4666667 9.20534409,23.85 C11.0154118,27.53 14.4855415,29.8266667 18.4890244,29.99 C18.6623643,29.9966667 18.8323706,30 19.0057104,30 C19.1790502,30 19.3490566,29.9966667 19.5190629,29.99 C23.5225459,29.8233333 26.9926756,27.53 28.8027433,23.85 C30.6794801,20.0333333 30.329467,15.5233333 27.8960427,12.08 Z M27.6060319,23.26 C26.0159725,26.4966667 22.9725254,28.5133333 19.4623942,28.6566667 C19.1590495,28.67 18.8523714,28.67 18.5456932,28.6566667 C15.0388955,28.5133333 11.9954484,26.4933333 10.4053889,23.26 C10.3853882,23.22 10.3687209,23.1766667 10.3487202,23.1366667 C11.2554207,23.16 12.1654547,22.8266667 12.8554805,22.1366667 C13.6721777,21.32 15.0022274,21.32 15.8189246,22.1366667 C16.4856162,22.8033333 17.3656491,23.14 18.2423486,23.14 C19.119048,23.14 19.9990809,22.8066667 20.6657725,22.1366667 C20.9257822,21.8766667 20.9257822,21.4533333 20.6657725,21.1933333 C20.4057628,20.9333333 19.9824136,20.9333333 19.7224039,21.1933333 C18.9057067,22.01 17.575657,22.01 16.7589598,21.1933333 C15.4222431,19.8566667 13.2488286,19.8566667 11.9121119,21.1933333 C11.3387572,21.7633333 10.5187265,21.9333333 9.79536615,21.7066667 C9.58869176,21.03 9.45535344,20.3366667 9.39201774,19.6433333 C10.5753953,20.02 11.9221123,19.74 12.8554805,18.8033333 C13.6721777,17.9866667 15.0022274,17.9866667 15.8189246,18.8033333 C16.4856162,19.47 17.3656491,19.8066667 18.2423486,19.8066667 C19.119048,19.8066667 19.9990809,19.4733333 20.6657725,18.8033333 C20.9257822,18.5433333 20.9257822,18.12 20.6657725,17.86 C20.4057628,17.6 19.9824136,17.6 19.7224039,17.86 C18.9057067,18.6766667 17.575657,18.6766667 16.7589598,17.86 C15.4222431,16.5233333 13.2488286,16.5233333 11.9121119,17.86 C11.2220861,18.55 10.16538,18.6533333 9.36201662,18.1766667 C9.39535119,17.5666667 9.47868764,16.9633333 9.61869288,16.37 C10.7420682,16.6433333 11.9787811,16.3433333 12.8554805,15.47 C13.252162,15.0733333 13.7755149,14.8566667 14.3355359,14.8566667 C14.8955568,14.8566667 15.4222431,15.0733333 15.8155912,15.47 C16.4822828,16.1366667 17.3623157,16.4733333 18.2390151,16.4733333 C19.1157145,16.4733333 19.9957474,16.14 20.662439,15.47 C20.9224487,15.21 20.9224487,14.7866667 20.662439,14.5266667 C20.4024293,14.2666667 19.9790801,14.2666667 19.7190704,14.5266667 C18.9023732,15.3433333 17.5723235,15.3433333 16.7556263,14.5266667 C16.1089355,13.88 15.2489033,13.5233333 14.3322024,13.5233333 C13.4155015,13.5233333 12.5554693,13.88 11.9087785,14.5266667 C11.3920925,15.0433333 10.6720656,15.23 10.005374,15.0966667 C10.3053852,14.31 10.6987332,13.5533333 11.1987519,12.8466667 L19.0057104,1.82 L26.806002,12.8466667 C28.9594158,15.8933333 29.266094,19.8833333 27.6060319,23.26 Z" id="Shape"></path>
                </g>
            </g>
        </g>
    </g>
</svg>