<svg xmlns="http://www.w3.org/2000/svg" width="32" height="32" viewBox="0 0 32 32">
    <path fill="#000" fill-rule="nonzero" stroke="#000" d="M28.896 13.381L20.549 1.585a.655.655 0 0 0-.543-.284.655.655 0 0 0-.544.284L11.115 13.38c-.523.74-.943 1.53-1.273 2.35a3.425 3.425 0 0 0-4.737.1 2.098 2.098 0 0 1-2.963 0 .668.668 0 0 0-.944.944 3.43 3.43 0 0 0 4.847 0 2.098 2.098 0 0 1 2.964 0c.12.12.25.226.383.323-.123.477-.22.96-.283 1.45a3.43 3.43 0 0 0-4.004.617 2.098 2.098 0 0 1-2.963 0 .668.668 0 0 0-.944.943 3.43 3.43 0 0 0 4.847 0 2.098 2.098 0 0 1 2.97.007c.007.603.057 1.203.157 1.803a3.432 3.432 0 0 0-4.07.58 2.098 2.098 0 0 1-2.964 0 .668.668 0 0 0-.943.943 3.43 3.43 0 0 0 4.847 0 2.098 2.098 0 0 1 2.963 0 3.4 3.4 0 0 0 .707.54c.143.397.303.787.493 1.17 1.81 3.68 5.28 5.977 9.284 6.14a13.357 13.357 0 0 0 1.03 0c4.004-.166 7.474-2.46 9.284-6.14 1.876-3.816 1.526-8.326-.907-11.77zm-.29 11.18c-1.59 3.237-4.633 5.254-8.144 5.397-.303.013-.61.013-.916 0-3.507-.143-6.55-2.163-8.14-5.397-.02-.04-.037-.083-.057-.123a3.407 3.407 0 0 0 2.506-1 2.098 2.098 0 0 1 2.964 0 3.423 3.423 0 0 0 2.423 1.003 3.41 3.41 0 0 0 2.424-1.003.668.668 0 0 0-.944-.943 2.098 2.098 0 0 1-2.963 0 3.43 3.43 0 0 0-4.847 0c-.573.57-1.393.74-2.117.513-.206-.677-.34-1.37-.403-2.063a3.42 3.42 0 0 0 3.463-.84 2.098 2.098 0 0 1 2.964 0 3.423 3.423 0 0 0 2.423 1.003 3.41 3.41 0 0 0 2.424-1.003.668.668 0 0 0-.944-.944 2.098 2.098 0 0 1-2.963 0 3.43 3.43 0 0 0-4.847 0c-.69.69-1.747.794-2.55.317.033-.61.117-1.213.257-1.807a3.432 3.432 0 0 0 3.236-.9c.397-.396.92-.613 1.48-.613.56 0 1.087.217 1.48.613a3.423 3.423 0 0 0 2.424 1.004 3.41 3.41 0 0 0 2.423-1.004.668.668 0 0 0-.943-.943 2.098 2.098 0 0 1-2.963 0 3.404 3.404 0 0 0-2.424-1.003c-.916 0-1.777.356-2.423 1.003a2.101 2.101 0 0 1-1.904.57c.3-.787.694-1.543 1.194-2.25L20.006 3.12l7.8 11.027c2.153 3.047 2.46 7.037.8 10.413z"/>
</svg>
