<svg xmlns="http://www.w3.org/2000/svg" width="22" height="36" viewBox="0 0 22 36">
    <g fill="none" fill-rule="evenodd">
        <path fill="#000" fill-rule="nonzero" d="M6.951.301c1.071 0 2.037.436 2.73 1.121a3.79 3.79 0 0 1 1.134 2.699V22.7a7.285 7.285 0 0 1 2.163 2.283 6.825 6.825 0 0 1 .924 3.446 6.77 6.77 0 0 1-2.037 4.837v.02a7.068 7.068 0 0 1-4.914 2.014 7.068 7.068 0 0 1-4.914-2.013v-.021A6.77 6.77 0 0 1 0 28.43c0-1.266.336-2.429.924-3.446l.042-.042A7.017 7.017 0 0 1 3.087 22.7V4.12a3.79 3.79 0 0 1 1.134-2.698 3.879 3.879 0 0 1 2.73-1.12zm.777 24.143V4.121a.785.785 0 0 0-.777-.768.785.785 0 0 0-.777.768v20.323l-1.155.664a3.827 3.827 0 0 0-1.932 3.322c0 2.097 1.722 3.799 3.864 3.799s3.864-1.702 3.864-3.8c0-1.37-.735-2.635-1.932-3.32l-1.155-.665z"/>
        <path stroke="#000" stroke-linecap="square" stroke-width="3" d="M16 17.79h4.201M16 11.79h4.201M16 5.79h4.201"/>
    </g>
</svg>
