<svg xmlns="http://www.w3.org/2000/svg" width="30" height="30" viewBox="0 0 30 30">
    <g fill="#000" fill-rule="nonzero">
        <path d="M11.205 13.062l3.392 4.77a1.106 1.106 0 0 0 1.806 0l3.392-4.77a1.12 1.12 0 0 0 .08-1.16 1.107 1.107 0 0 0-.99-.6h-6.782a1.108 1.108 0 0 0-.98.605 1.12 1.12 0 0 0 .082 1.155z"/>
        <path d="M1.074 23.301C.481 23.301 0 22.798 0 22.176c0-.621.481-1.125 1.074-1.125H25.6c.922-.012 1.757-.576 2.148-1.451a2.335 2.335 0 0 0-.354-1.924 2.432 2.432 0 0 0-1.816-1.125c-.944.098-1.765.722-2.148 1.631-.267.557-.914.78-1.445.501-.531-.28-.745-.957-.478-1.513.744-1.698 2.342-2.809 4.125-2.869 1.412.088 2.706.857 3.502 2.081a4.6 4.6 0 0 1 .71 3.882c-.663 1.822-2.328 3.03-4.19 3.037H1.074zM28.929 26.301H1.07c-.591 0-1.071-.447-1.071-1 0-.552.48-1 1.071-1H28.93c.591 0 1.071.448 1.071 1 0 .553-.48 1-1.071 1zM28.929 29.301H1.07c-.591 0-1.071-.447-1.071-1 0-.552.48-1 1.071-1H28.93c.591 0 1.071.448 1.071 1 0 .553-.48 1-1.071 1zM15 15.301c-.552 0-1-.48-1-1.071V1.373C14 .78 14.448.3 15 .3s1 .48 1 1.072V14.23c0 .592-.448 1.071-1 1.071z"/>
    </g>
</svg>
