<?xml version="1.0" encoding="UTF-8"?>
<svg width="24px" height="35px" viewBox="0 0 24 35" version="1.1" xmlns="http://www.w3.org/2000/svg" xmlns:xlink="http://www.w3.org/1999/xlink">
    <!-- Generator: Sketch 55.2 (78181) - https://sketchapp.com -->
    <title>Rectangle Copy 33</title>
    <desc>Created with Sketch.</desc>
    <g id="Page-1" stroke="none" stroke-width="1" fill="none" fill-rule="evenodd">
        <g id="Indy500-Demo-V2-Weather-Info" transform="translate(-368.000000, -210.000000)" fill="#FFFFFF">
            <path d="M382,220 L392,220 L392,223 L382,223 L382,220 Z M382,215 L392,215 L392,218 L382,218 L382,215 Z M382,225 L392,225 L392,228 L382,228 L382,225 Z M374.951,210 C376.022,210 376.988,210.435943 377.681,211.120996 C378.374,211.80605 378.815,212.760973 378.815,213.819692 L378.815,232.39917 C379.697,233.001186 380.432,233.769276 380.978,234.682681 C381.566,235.699881 381.902,236.862396 381.902,238.128707 C381.902,240.017794 381.125,241.720047 379.865,242.965599 L379.865,242.986358 C378.605,244.211151 376.862,245 374.951,245 C373.04,245 371.297,244.211151 370.037,242.986358 L370.037,242.965599 C368.777,241.720047 368,240.017794 368,238.128707 C368,236.862396 368.336,235.699881 368.924,234.682681 L368.966,234.641163 C369.491,233.748517 370.226,232.980427 371.087,232.39917 L371.087,213.819692 C371.087,212.760973 371.528,211.80605 372.221,211.120996 C372.914,210.435943 373.88,210 374.951,210 Z M375.728,234.142942 L375.728,213.819692 C375.728,213.404508 375.371,213.051601 374.951,213.051601 C374.531,213.051601 374.174,213.404508 374.174,213.819692 L374.174,234.142942 L373.019,234.807236 C371.822,235.492289 371.087,236.7586 371.087,238.128707 C371.087,240.225386 372.809,241.927639 374.951,241.927639 C377.093,241.927639 378.815,240.225386 378.815,238.128707 C378.815,236.7586 378.08,235.492289 376.883,234.807236 L375.728,234.142942 Z" id="Rectangle-Copy-33"></path>
        </g>
    </g>
</svg>