<svg xmlns="http://www.w3.org/2000/svg" width="40" height="40" viewBox="0 0 40 40">
    <g fill="#FFF" fill-rule="nonzero">
        <path d="M8.184 17.616a.8.8 0 0 1-.778-.62 7.96 7.96 0 0 1-.205-1.794c0-4.412 3.589-8.001 8-8.001 3.998 0 7.407 2.989 7.93 6.951a.8.8 0 1 1-1.586.21A6.416 6.416 0 0 0 15.2 8.8a6.408 6.408 0 0 0-6.237 7.834.8.8 0 0 1-.78.981z"/>
        <path d="M15.2 8.8a.8.8 0 0 1-.8-.8V.8a.8.8 0 0 1 1.6 0V8a.8.8 0 0 1-.8.8zM10.109 10.909a.798.798 0 0 1-.566-.235l-5.09-5.09a.8.8 0 1 1 1.131-1.131l5.09 5.09a.8.8 0 0 1-.565 1.366zM8 16.002H.8a.8.8 0 0 1 0-1.6H8a.8.8 0 0 1 0 1.6zM20.294 10.909a.8.8 0 0 1-.566-1.366l5.091-5.09a.8.8 0 1 1 1.131 1.131l-5.09 5.09a.798.798 0 0 1-.566.235zM26.4 40h-16C4.666 40 0 35.333 0 29.6s4.666-10.4 10.4-10.4c1.393 0 2.734.268 4 .797a13.649 13.649 0 0 1 12-7.197c7.498 0 13.6 6.1 13.6 13.6C40 33.898 33.897 40 26.4 40zm-16-19.2c-4.852 0-8.8 3.948-8.8 8.8s3.948 8.8 8.8 8.8h16c6.616 0 12-5.384 12-12 0-6.617-5.384-12-12-12-4.67 0-8.95 2.742-10.905 6.985a.802.802 0 0 1-1.091.377A8.714 8.714 0 0 0 10.4 20.8z"/>
    </g>
</svg>
