<?xml version="1.0" encoding="UTF-8"?>
<svg width="48px" height="16px" viewBox="0 0 48 16" version="1.1" xmlns="http://www.w3.org/2000/svg" xmlns:xlink="http://www.w3.org/1999/xlink">
    <!-- Generator: Sketch 55.2 (78181) - https://sketchapp.com -->
    <title>Group</title>
    <desc>Created with Sketch.</desc>
    <g id="Page-1" stroke="none" stroke-width="1" fill="none" fill-rule="evenodd">
        <g id="Desktop-HD" transform="translate(-974.000000, -144.000000)" fill="#ffffff" fill-rule="nonzero">
            <g id="FullHeader">
                <g id="Group" transform="translate(973.000000, 144.000000)">
                    <path d="M38.5,7.7 C36.2,7.7 34.4,9.6 34.4,11.8 C34.4,14.1 36.3,15.9 38.5,15.9 C40.8,15.9 42.7,14 42.7,11.8 C42.6,9.5 40.7,7.7 38.5,7.7 Z" id="Path"></path>
                    <path d="M11.5,7.7 C9.2,7.7 7.3,9.6 7.3,11.8 C7.3,14.1 9.2,15.9 11.5,15.9 C13.8,15.9 15.6,14 15.6,11.8 C15.7,9.5 13.8,7.7 11.5,7.7 Z" id="Path"></path>
                    <path d="M48.5,8.8 C48.4,8.7 48.2,8.5 48.1,8.4 C45.6,7.4 43.6,5.2 37.5,4.6 C36.9,4.5 36.2,4.3 35.6,4 C24.4,-2.2 13.1,3.6 10.7,3.6 L7.2,3.6 L5.9,0.7 C5.7,0.3 5.3,0.1 4.9,0.1 L1.9,0.4 C1.4,0.5 0.9,0.9 1,1.5 C1.1,2 1.5,2.4 2.1,2.4 L4.4,2.2 L5.1,3.9 C4.6,4.1 4.2,4.5 3.9,5 C3.8,5.5 1.4,8.4 3.3,11.4 C3.9,12.3 4.7,13 5.6,13.5 C5.5,13 5.4,12.5 5.4,11.9 C5.4,8.5 8.2,5.8 11.6,5.8 C15,5.8 17.7,8.6 17.7,11.9 C17.7,12.7 17.5,13.4 17.3,14.1 L32.8,14.1 C32.5,13.4 32.4,12.7 32.4,11.9 C32.4,8.5 35.2,5.8 38.5,5.8 C41.8,5.8 44.7,8.6 44.7,11.9 C44.7,12.7 44.5,13.4 44.3,14.1 L45.6,14.1 C48.2,14 49.9,11.1 48.5,8.8 Z M20.1,6.1 L15.2,4.5 C16.8,4.1 18.4,3.8 20.1,3.6 L20.1,6.1 Z M30.7,6.6 L22.1,6.6 L22.1,3.4 C26.7,2.9 29,2.8 33.6,5.2 C33.4,5.3 32.5,6.6 30.7,6.6 Z" id="Shape"></path>
                </g>
            </g>
        </g>
    </g>
</svg>