<?xml version="1.0" encoding="UTF-8"?>
<svg width="36px" height="36px" viewBox="0 0 36 36" version="1.1" xmlns="http://www.w3.org/2000/svg" xmlns:xlink="http://www.w3.org/1999/xlink">
    <!-- Generator: Sketch 55.2 (78181) - https://sketchapp.com -->
    <title>RPMIcon</title>
    <desc>Created with Sketch.</desc>
    <g id="Page-1" stroke="none" stroke-width="1" fill="none" fill-rule="evenodd">
        <g id="Desktop-HD" transform="translate(-129.000000, -992.000000)" fill="#000000" fill-rule="nonzero">
            <g id="Group-10" transform="translate(130.000000, 770.000000)">
                <g id="RPMIcon" transform="translate(0.000000, 223.000000)">
                    <path d="M17,0 C7.62634275,0 0,7.62608339 0,17 C0,26.3739166 7.6263428,34 17,34 C26.3736572,34 34,26.3739166 34,17 C34,7.62608339 26.3736573,0 17,0 Z M17,32.9375 C8.21206664,32.9375 1.0625,25.7879334 1.0625,17 C1.0625,8.21206664 8.21206664,1.0625 17,1.0625 C25.7879334,1.0625 32.9375,8.21206664 32.9375,17 C32.9375,25.7879334 25.7879334,32.9375 17,32.9375 Z" id="Shape" stroke="#000000" stroke-width="1.35"></path>
                    <path d="M17,8.16 C12.1255078,8.16 8.16,12.1255078 8.16,17 C8.16,21.4484375 11.4856641,25.2202149 15.8975391,25.7737305 C16.2646875,25.818418 16.6257422,25.84 17,25.84 C17.3742578,25.84 17.7353125,25.818418 18.1024609,25.7737305 C22.5143359,25.2202149 25.84,21.4484375 25.84,17 C25.84,12.1255078 21.8744922,8.16 17,8.16 Z M18.4482495,24.6598755 L18.0293359,22.6156445 C17.9800781,22.3736719 17.7667969,22.2 17.52,22.2 L16.48,22.2 C16.2332031,22.2 16.0199219,22.3736719 15.9706641,22.6156445 L15.5517822,24.6598755 C11.9002613,23.9713452 9.2,20.763811 9.2,17 C9.2,12.699082 12.6988281,9.2 17,9.2 C21.3011719,9.2 24.8,12.699082 24.8,17 C24.8,20.7644141 22.0988501,23.9723291 18.4482495,24.6598755 Z" id="Shape"></path>
                    <path d="M17,14.96 C15.8749121,14.96 14.96,15.8751611 14.96,17 C14.96,18.1248389 15.8749121,19.04 17,19.04 C18.1250879,19.04 19.04,18.1248389 19.04,17 C19.04,15.8751611 18.1250879,14.96 17,14.96 Z M17,18.02 C16.4377051,18.02 15.98,17.5625439 15.98,17 C15.98,16.4374561 16.4377051,15.98 17,15.98 C17.5622949,15.98 18.02,16.4374561 18.02,17 C18.02,17.5625439 17.5622949,18.02 17,18.02 Z" id="Shape"></path>
                    <path d="M13.6,12.24 C12.8500185,12.24 12.24,12.850131 12.24,13.6 C12.24,14.349869 12.8500185,14.96 13.6,14.96 C14.3499815,14.96 14.96,14.349869 14.96,13.6 C14.96,12.850131 14.3499815,12.24 13.6,12.24 Z M13.6,13.932411 C13.4163925,13.932411 13.2673995,13.7833905 13.2673995,13.5999999 C13.2673995,13.4166094 13.4163925,13.267589 13.6,13.267589 C13.7836075,13.267589 13.9326005,13.4166095 13.9326005,13.6 C13.9326005,13.7833905 13.7836075,13.932411 13.6,13.932411 Z" id="Shape"></path>
                    <path d="M20.4,12.24 C19.6500185,12.24 19.04,12.850131 19.04,13.6 C19.04,14.349869 19.6500185,14.96 20.4,14.96 C21.1499815,14.96 21.76,14.349869 21.76,13.6 C21.76,12.850131 21.1499816,12.24 20.4,12.24 Z M20.4,13.932411 C20.2163925,13.932411 20.0673995,13.7833905 20.0673995,13.5999999 C20.0673995,13.4166094 20.2163925,13.267589 20.4,13.267589 C20.5836075,13.267589 20.7326005,13.4166095 20.7326005,13.6 C20.7326005,13.7833905 20.5836075,13.932411 20.4,13.932411 Z" id="Shape"></path>
                    <path d="M13.6,19.04 C12.8500185,19.04 12.24,19.650131 12.24,20.4 C12.24,21.1498691 12.8500184,21.76 13.6,21.76 C14.3499816,21.76 14.96,21.149869 14.96,20.4 C14.96,19.6501309 14.3499815,19.04 13.6,19.04 Z M13.6,20.732411 C13.4163925,20.732411 13.2673995,20.5833905 13.2673995,20.4 C13.2673995,20.2166095 13.4163925,20.067589 13.6,20.067589 C13.7836075,20.067589 13.9326005,20.2166095 13.9326005,20.4 C13.9326005,20.5833905 13.7836075,20.732411 13.6,20.732411 Z" id="Shape"></path>
                    <path d="M20.4,19.04 C19.6500185,19.04 19.04,19.650131 19.04,20.4 C19.04,21.1498691 19.6500185,21.76 20.4,21.76 C21.1499815,21.76 21.76,21.149869 21.76,20.4 C21.76,19.6501309 21.1499816,19.04 20.4,19.04 Z M20.4,20.732411 C20.2163925,20.732411 20.0673995,20.5833905 20.0673995,20.4 C20.0673995,20.2166095 20.2163925,20.067589 20.4,20.067589 C20.5836075,20.067589 20.7326005,20.2166095 20.7326005,20.4 C20.7326005,20.5833905 20.5836075,20.732411 20.4,20.732411 Z" id="Shape"></path>
                </g>
            </g>
        </g>
    </g>
</svg>