<?xml version="1.0" encoding="UTF-8"?>
<svg width="29px" height="24px" viewBox="0 0 29 24" version="1.1" xmlns="http://www.w3.org/2000/svg" xmlns:xlink="http://www.w3.org/1999/xlink">
    <!-- Generator: Sketch 55.2 (78181) - https://sketchapp.com -->
    <title>Team</title>
    <desc>Created with Sketch.</desc>
    <g id="Page-1" stroke="none" stroke-width="1" fill="none" fill-rule="evenodd">
        <g id="Desktop-HD" transform="translate(-778.000000, -140.000000)" fill="#ffffff" fill-rule="nonzero">
            <g id="FullHeader">
                <g id="Team" transform="translate(778.450000, 140.644318)">
                    <path d="M20.1,20.3750367 C13.125,23.4976173 6.375,23.6395528 -6.98108238e-13,20.3750367 C-6.98108238e-13,16.3298754 2.325,12.7814883 5.775,11.1492302 C6.9,12.0718109 8.4,12.6395528 10.05,12.6395528 C11.7,12.6395528 13.2,12.0718109 14.325,11.1492302 C17.7,12.852456 20.1,16.3298754 20.1,20.3750367 Z" id="Path"></path>
                    <ellipse id="Oval" cx="10.05" cy="5.57957668" rx="5.175" ry="4.89677419"></ellipse>
                    <path d="M28.35,15.2079545 C26.1617647,16.2818182 23.9735294,16.8545455 21.8558824,16.9977273 C21.0794118,13.9193182 19.1029412,11.1988636 16.4205882,9.69545455 C16.6323529,9.48068182 16.7735294,9.19431818 16.9147059,8.90795455 C17.2676471,8.62159091 17.6911765,8.33522727 18.1147059,8.12045455 C18.9617647,8.83636364 20.0205882,9.26590909 21.15,9.26590909 C22.35,9.26590909 23.4088235,8.83636364 24.1852941,8.12045455 C26.6558824,9.40909091 28.35,12.1295455 28.35,15.2079545 Z" id="Path"></path>
                    <path d="M24.8911765,3.65113636 C24.8911765,5.72727273 23.2676471,7.37386364 21.2205882,7.37386364 C19.5264706,7.37386364 18.1147059,6.22840909 17.6911765,4.65340909 C17.6911765,4.36704545 17.6205882,4.08068182 17.55,3.79431818 C17.55,3.79431818 17.55,3.79431818 17.55,3.79431818 L17.55,3.79431818 C17.55,3.79431818 17.55,3.72272727 17.55,3.72272727 C17.55,1.64659091 19.1735294,-1.98063788e-13 21.2205882,-1.98063788e-13 C23.2676471,-1.98063788e-13 24.8911765,1.575 24.8911765,3.65113636 Z" id="Path"></path>
                </g>
            </g>
        </g>
    </g>
</svg>