<?xml version="1.0" encoding="UTF-8"?>
<svg width="700px" height="106px" viewBox="0 0 700 106" version="1.1" xmlns="http://www.w3.org/2000/svg" xmlns:xlink="http://www.w3.org/1999/xlink">
    <!-- Generator: Sketch 50.2 (55047) - http://www.bohemiancoding.com/sketch -->
    <title>Rank 3 background</title>
    <desc>Created with Sketch.</desc>
    <defs></defs>
    <g id="Page-1" stroke="none" stroke-width="1" fill="none" fill-rule="evenodd">
        <g id="INDIANAPOLIS-500" transform="translate(-412.000000, -689.000000)" fill="#4A4A4A">
            <g id="Track-Animation-and-Ranking" transform="translate(-2.000000, 194.000000)">
                <g id="Top-3-ranking" transform="translate(306.000000, 243.000000)">
                    <g id="Rank-3-" transform="translate(108.000000, 252.000000)">
                        <g id="Rank-3-background">
                            <polygon id="Fill-1" fill-opacity="0.8" points="355.29905 0.000326153846 353.515796 19.9813262 373.888955 19.9813262 375.671378 0.000326153846"></polygon>
                            <polygon id="Fill-2" fill-opacity="0.8" points="371.976176 41.4253708 351.603848 41.4253708 353.386271 21.4435554 373.758599 21.4435554"></polygon>
                            <polygon id="Fill-3" fill-opacity="0.8" points="370.063397 62.8690077 349.691069 62.8690077 351.47266 42.8871923 371.845819 42.8871923"></polygon>
                            <polygon id="Fill-4" fill-opacity="0.8" points="368.150618 84.3126446 347.777458 84.3126446 349.559881 64.3308292 369.93304 64.3308292"></polygon>
                            <polygon id="Fill-5" fill-opacity="0.8" points="347.626069 86.0181031 345.842815 105.999918 366.215974 105.999918 367.998397 86.0181031"></polygon>
                            <polygon id="Fill-6" fill-opacity="0.8" points="376.913587 0.000326153846 375.131164 19.9813262 395.504323 19.9813262 397.286746 0.000326153846"></polygon>
                            <polygon id="Fill-7" fill-opacity="0.8" points="393.591378 41.4253708 373.21905 41.4253708 375.001473 21.4435554 395.3738 21.4435554"></polygon>
                            <polygon id="Fill-8" fill-opacity="0.8" points="391.678599 62.8690077 371.306271 62.8690077 373.087862 42.8871923 393.461021 42.8871923"></polygon>
                            <polygon id="Fill-9" fill-opacity="0.8" points="389.765819 84.3126446 369.39266 84.3126446 371.175083 64.3308292 391.548242 64.3308292"></polygon>
                            <polygon id="Fill-10" fill-opacity="0.8" points="369.241354 86.0181031 367.4581 105.999918 387.831259 105.999918 389.613682 86.0181031"></polygon>
                            <polygon id="Fill-11" fill-opacity="0.8" points="398.528872 0.000326153846 396.746449 19.9813262 417.119608 19.9813262 418.902031 0.000326153846"></polygon>
                            <polygon id="Fill-12" fill-opacity="0.8" points="415.20658 41.4253708 394.834252 41.4253708 396.616675 21.4435554 416.989002 21.4435554"></polygon>
                            <polygon id="Fill-13" fill-opacity="0.8" points="413.2938 62.8690077 392.921473 62.8690077 394.703064 42.8871923 415.076223 42.8871923"></polygon>
                            <polygon id="Fill-14" fill-opacity="0.8" points="411.381021 84.3126446 391.007862 84.3126446 392.790285 64.3308292 413.163444 64.3308292"></polygon>
                            <polygon id="Fill-15" fill-opacity="0.8" points="390.855891 86.0181031 389.073468 105.999918 409.445796 105.999918 411.22905 86.0181031"></polygon>
                            <polygon id="Fill-16" fill-opacity="0.8" points="420.144157 0.000326153846 418.361734 19.9813262 438.734893 19.9813262 440.516485 0.000326153846"></polygon>
                            <polygon id="Fill-17" fill-opacity="0.8" points="436.821781 41.4253708 416.449454 41.4253708 418.231876 21.4435554 438.604204 21.4435554"></polygon>
                            <polygon id="Fill-18" fill-opacity="0.8" points="434.909002 62.8690077 414.536675 62.8690077 416.318266 42.8871923 436.691425 42.8871923"></polygon>
                            <polygon id="Fill-19" fill-opacity="0.8" points="432.996223 84.3126446 412.623064 84.3126446 414.405487 64.3308292 434.778646 64.3308292"></polygon>
                            <polygon id="Fill-20" fill-opacity="0.8" points="412.471176 86.0181031 410.688753 105.999918 431.061081 105.999918 432.843504 86.0181031"></polygon>
                            <polygon id="Fill-21" fill-opacity="0.8" points="441.759442 0.000326153846 439.977019 19.9813262 460.350178 19.9813262 462.13177 0.000326153846"></polygon>
                            <polygon id="Fill-22" fill-opacity="0.8" points="458.436983 41.4253708 438.064656 41.4253708 439.847078 21.4435554 460.219406 21.4435554"></polygon>
                            <polygon id="Fill-23" fill-opacity="0.8" points="456.524204 62.8690077 436.151876 62.8690077 437.933468 42.8871923 458.306627 42.8871923"></polygon>
                            <polygon id="Fill-24" fill-opacity="0.8" points="454.611425 84.3126446 434.238266 84.3126446 436.020689 64.3308292 456.393848 64.3308292"></polygon>
                            <polygon id="Fill-25" fill-opacity="0.8" points="434.086461 86.0181031 432.304038 105.999918 452.676366 105.999918 454.458789 86.0181031"></polygon>
                            <polygon id="Fill-26" fill-opacity="0.8" points="463.374727 0.000326153846 461.592304 19.9813262 481.965463 19.9813262 483.747055 0.000326153846"></polygon>
                            <polygon id="Fill-27" fill-opacity="0.8" points="480.052185 41.4253708 459.679857 41.4253708 461.46228 21.4435554 481.834608 21.4435554"></polygon>
                            <polygon id="Fill-28" fill-opacity="0.8" points="478.139406 62.8690077 457.767078 62.8690077 459.54867 42.8871923 479.921829 42.8871923"></polygon>
                            <polygon id="Fill-29" fill-opacity="0.8" points="476.226627 84.3126446 455.853468 84.3126446 457.635891 64.3308292 478.00905 64.3308292"></polygon>
                            <polygon id="Fill-30" fill-opacity="0.8" points="455.701746 86.0181031 453.919323 105.999918 474.291651 105.999918 476.074074 86.0181031"></polygon>
                            <polygon id="Fill-31" fill-opacity="0.8" points="484.990012 0.000326153846 483.207589 19.9813262 503.579917 19.9813262 505.36234 0.000326153846"></polygon>
                            <polygon id="Fill-32" fill-opacity="0.8" points="501.667387 41.4253708 481.295059 41.4253708 483.077482 21.4435554 503.44981 21.4435554"></polygon>
                            <polygon id="Fill-33" fill-opacity="0.8" points="499.754608 62.8690077 479.38228 62.8690077 481.163872 42.8871923 501.537031 42.8871923"></polygon>
                            <polygon id="Fill-34" fill-opacity="0.8" points="497.841829 84.3126446 477.46867 84.3126446 479.251093 64.3308292 499.624252 64.3308292"></polygon>
                            <polygon id="Fill-35" fill-opacity="0.8" points="477.317031 86.0181031 475.534608 105.999918 495.906936 105.999918 497.689359 86.0181031"></polygon>
                            <polygon id="Fill-36" fill-opacity="0.8" points="506.605297 0.000326153846 504.822874 19.9813262 525.195202 19.9813262 526.977625 0.000326153846"></polygon>
                            <polygon id="Fill-37" fill-opacity="0.8" points="523.282589 41.4253708 502.910261 41.4253708 504.692684 21.4435554 525.065012 21.4435554"></polygon>
                            <polygon id="Fill-38" fill-opacity="0.8" points="521.36981 62.8690077 500.997482 62.8690077 502.779074 42.8871923 523.152233 42.8871923"></polygon>
                            <polygon id="Fill-39" fill-opacity="0.8" points="519.457031 84.3126446 499.083872 84.3126446 500.866295 64.3308292 521.239454 64.3308292"></polygon>
                            <polygon id="Fill-40" fill-opacity="0.8" points="498.932316 86.0181031 497.149893 105.999918 517.522221 105.999918 519.304644 86.0181031"></polygon>
                            <polygon id="Fill-41" fill-opacity="0.8" points="528.220582 0.000326153846 526.437328 19.9813262 546.810487 19.9813262 548.59291 0.000326153846"></polygon>
                            <polygon id="Fill-42" fill-opacity="0.8" points="544.897791 41.4253708 524.525463 41.4253708 526.307886 21.4435554 546.680214 21.4435554"></polygon>
                            <polygon id="Fill-43" fill-opacity="0.8" points="542.985012 62.8690077 522.612684 62.8690077 524.394276 42.8871923 544.767435 42.8871923"></polygon>
                            <polygon id="Fill-44" fill-opacity="0.8" points="541.072233 84.3126446 520.699074 84.3126446 522.481496 64.3308292 542.854656 64.3308292"></polygon>
                            <polygon id="Fill-45" fill-opacity="0.8" points="520.547601 86.0181031 518.764347 105.999918 539.137506 105.999918 540.919929 86.0181031"></polygon>
                            <polygon id="Fill-46" fill-opacity="0.8" points="549.835867 0.000326153846 548.052613 19.9813262 568.425772 19.9813262 570.208195 0.000326153846"></polygon>
                            <polygon id="Fill-47" fill-opacity="0.8" points="566.512993 41.4253708 546.140665 41.4253708 547.923088 21.4435554 568.295416 21.4435554"></polygon>
                            <polygon id="Fill-48" fill-opacity="0.8" points="564.600214 62.8690077 544.227886 62.8690077 546.009477 42.8871923 566.382637 42.8871923"></polygon>
                            <polygon id="Fill-49" fill-opacity="0.8" points="562.687435 84.3126446 542.314276 84.3126446 544.096698 64.3308292 564.469857 64.3308292"></polygon>
                            <polygon id="Fill-50" fill-opacity="0.8" points="542.162886 86.0181031 540.379632 105.999918 560.752791 105.999918 562.535214 86.0181031"></polygon>
                            <polygon id="Fill-51" fill-opacity="0.8" points="571.450404 0.000326153846 569.667981 19.9813262 590.04114 19.9813262 591.823563 0.000326153846"></polygon>
                            <polygon id="Fill-52" fill-opacity="0.8" points="588.128195 41.4253708 567.755867 41.4253708 569.53829 21.4435554 589.910618 21.4435554"></polygon>
                            <polygon id="Fill-53" fill-opacity="0.8" points="586.215416 62.8690077 565.843088 62.8690077 567.624679 42.8871923 587.997838 42.8871923"></polygon>
                            <polygon id="Fill-54" fill-opacity="0.8" points="584.302637 84.3126446 563.929477 84.3126446 565.7119 64.3308292 586.085059 64.3308292"></polygon>
                            <polygon id="Fill-55" fill-opacity="0.8" points="563.777423 86.0181031 561.995 105.999918 582.367328 105.999918 584.150582 86.0181031"></polygon>
                            <polygon id="Fill-56" fill-opacity="0.8" points="593.065689 0.000326153846 591.283266 19.9813262 611.656425 19.9813262 613.438848 0.000326153846"></polygon>
                            <polygon id="Fill-57" fill-opacity="0.8" points="609.743397 41.4253708 589.371069 41.4253708 591.153492 21.4435554 611.525819 21.4435554"></polygon>
                            <polygon id="Fill-58" fill-opacity="0.8" points="607.830618 62.8690077 587.45829 62.8690077 589.239881 42.8871923 609.61304 42.8871923"></polygon>
                            <polygon id="Fill-59" fill-opacity="0.8" points="605.917838 84.3126446 585.544679 84.3126446 587.327102 64.3308292 607.700261 64.3308292"></polygon>
                            <polygon id="Fill-60" fill-opacity="0.8" points="585.392708 86.0181031 583.610285 105.999918 603.982613 105.999918 605.765867 86.0181031"></polygon>
                            <polygon id="Fill-61" fill-opacity="0.8" points="614.680974 0.000326153846 612.898551 19.9813262 633.27171 19.9813262 635.053302 0.000326153846"></polygon>
                            <polygon id="Fill-62" fill-opacity="0.8" points="631.358599 41.4253708 610.986271 41.4253708 612.768694 21.4435554 633.141021 21.4435554"></polygon>
                            <polygon id="Fill-63" fill-opacity="0.8" points="629.445819 62.8690077 609.073492 62.8690077 610.855083 42.8871923 631.228242 42.8871923"></polygon>
                            <polygon id="Fill-64" fill-opacity="0.8" points="627.53304 84.3126446 607.159881 84.3126446 608.942304 64.3308292 629.315463 64.3308292"></polygon>
                            <polygon id="Fill-65" fill-opacity="0.8" points="607.007993 86.0181031 605.22557 105.999918 625.597898 105.999918 627.380321 86.0181031"></polygon>
                            <polygon id="Fill-66" opacity="0.6" points="636.296259 0.000326153846 634.513836 19.9813262 654.886995 19.9813262 656.668587 0.000326153846"></polygon>
                            <polygon id="Fill-67" opacity="0.6" points="652.9738 41.4253708 632.601473 41.4253708 634.383895 21.4435554 654.756223 21.4435554"></polygon>
                            <polygon id="Fill-68" opacity="0.6" points="651.061021 62.8690077 630.688694 62.8690077 632.470285 42.8871923 652.843444 42.8871923"></polygon>
                            <polygon id="Fill-69" opacity="0.6" points="649.148242 84.3126446 628.775083 84.3126446 630.557506 64.3308292 650.930665 64.3308292"></polygon>
                            <polygon id="Fill-70" opacity="0.6" points="628.623278 86.0181031 626.840855 105.999918 647.213183 105.999918 648.995606 86.0181031"></polygon>
                            <polygon id="Fill-71" opacity="0.4" points="657.911544 0.000326153846 656.129121 19.9813262 676.50228 19.9813262 678.283872 0.000326153846"></polygon>
                            <polygon id="Fill-72" opacity="0.4" points="674.589002 41.4253708 654.216675 41.4253708 655.999097 21.4435554 676.371425 21.4435554"></polygon>
                            <polygon id="Fill-73" opacity="0.4" points="672.676223 62.8690077 652.303895 62.8690077 654.085487 42.8871923 674.458646 42.8871923"></polygon>
                            <polygon id="Fill-74" opacity="0.4" points="670.763444 84.3126446 650.390285 84.3126446 652.172708 64.3308292 672.545867 64.3308292"></polygon>
                            <polygon id="Fill-75" opacity="0.4" points="650.238563 86.0181031 648.45614 105.999918 668.828468 105.999918 670.610891 86.0181031"></polygon>
                            <polygon id="Fill-76" opacity="0.2" points="679.526829 0.000326153846 677.744406 19.9813262 698.116734 19.9813262 699.899157 0.000326153846"></polygon>
                            <polygon id="Fill-77" opacity="0.2" points="696.204204 41.4253708 675.831876 41.4253708 677.614299 21.4435554 697.986627 21.4435554"></polygon>
                            <polygon id="Fill-78" opacity="0.2" points="694.291425 62.8690077 673.919097 62.8690077 675.700689 42.8871923 696.073848 42.8871923"></polygon>
                            <polygon id="Fill-79" opacity="0.2" points="692.378646 84.3126446 672.005487 84.3126446 673.78791 64.3308292 694.161069 64.3308292"></polygon>
                            <polygon id="Fill-80" opacity="0.2" points="671.853848 86.0181031 670.071425 105.999918 690.443753 105.999918 692.226176 86.0181031"></polygon>
                            <polygon id="Fill-81" opacity="0.2" points="9.45523753 0.000326153846 7.67281473 19.9813262 28.0459739 19.9813262 29.8283967 0.000326153846"></polygon>
                            <polygon id="Fill-82" opacity="0.2" points="26.1329454 41.4253708 5.76061758 41.4253708 7.54304038 21.4435554 27.9153682 21.4435554"></polygon>
                            <polygon id="Fill-83" opacity="0.2" points="24.2201663 62.8690077 3.84783848 62.8690077 5.62942993 42.8871923 26.0025891 42.8871923"></polygon>
                            <polygon id="Fill-84" opacity="0.2" points="22.3074703 84.3126446 1.93431116 84.3126446 3.71673397 64.3308292 24.0898931 64.3308292"></polygon>
                            <polygon id="Fill-85" opacity="0.2" points="1.78225653 86.0181031 -0.000166270784 105.999918 20.3721615 105.999918 22.1554157 86.0181031"></polygon>
                            <polygon id="Fill-86" opacity="0.4" points="31.0705226 0.000326153846 29.2880998 19.9813262 49.6612589 19.9813262 51.4428504 0.000326153846"></polygon>
                            <polygon id="Fill-87" opacity="0.4" points="47.7481473 41.4253708 27.3758195 41.4253708 29.1582423 21.4435554 49.5305701 21.4435554"></polygon>
                            <polygon id="Fill-88" opacity="0.4" points="45.8353682 62.8690077 25.4630404 62.8690077 27.2446318 42.8871923 47.617791 42.8871923"></polygon>
                            <polygon id="Fill-89" opacity="0.4" points="43.9226722 84.3126446 23.5495131 84.3126446 25.3319359 64.3308292 45.705095 64.3308292"></polygon>
                            <polygon id="Fill-90" opacity="0.4" points="23.3975416 86.0181031 21.6151188 105.999918 41.9874466 105.999918 43.7707007 86.0181031"></polygon>
                            <polygon id="Fill-91" opacity="0.6" points="52.6858076 0.000326153846 50.9033848 19.9813262 71.2765439 19.9813262 73.0581354 0.000326153846"></polygon>
                            <polygon id="Fill-92" opacity="0.6" points="69.3633492 41.4253708 48.9910214 41.4253708 50.7734442 21.4435554 71.145772 21.4435554"></polygon>
                            <polygon id="Fill-93" opacity="0.6" points="67.4505701 62.8690077 47.0782423 62.8690077 48.8598337 42.8871923 69.2329929 42.8871923"></polygon>
                            <polygon id="Fill-94" opacity="0.6" points="65.5378741 84.3126446 45.164715 84.3126446 46.9471378 64.3308292 67.3202969 64.3308292"></polygon>
                            <polygon id="Fill-95" opacity="0.6" points="45.0128266 86.0181031 43.2304038 105.999918 63.6027316 105.999918 65.3851544 86.0181031"></polygon>
                            <polygon id="Fill-96" fill-opacity="0.8" points="74.3010926 0.000326153846 72.5186698 19.9813262 92.891829 19.9813262 94.6734204 0.000326153846"></polygon>
                            <polygon id="Fill-97" fill-opacity="0.8" points="90.9785511 41.4253708 70.6062233 41.4253708 72.3886461 21.4435554 92.7609739 21.4435554"></polygon>
                            <polygon id="Fill-98" fill-opacity="0.8" points="89.065772 62.8690077 68.6934442 62.8690077 70.4750356 42.8871923 90.8481948 42.8871923"></polygon>
                            <polygon id="Fill-99" fill-opacity="0.8" points="87.153076 84.3126446 66.7799169 84.3126446 68.5623397 64.3308292 88.9354988 64.3308292"></polygon>
                            <polygon id="Fill-100" fill-opacity="0.8" points="66.6281116 86.0181031 64.8456888 105.999918 85.2180166 105.999918 87.0004394 86.0181031"></polygon>
                            <polygon id="Fill-101" fill-opacity="0.8" points="95.9163777 0.000326153846 94.1339549 19.9813262 114.506283 19.9813262 116.288705 0.000326153846"></polygon>
                            <polygon id="Fill-102" fill-opacity="0.8" points="112.593753 41.4253708 92.2214252 41.4253708 94.003848 21.4435554 114.376176 21.4435554"></polygon>
                            <polygon id="Fill-103" fill-opacity="0.8" points="110.680974 62.8690077 90.3086461 62.8690077 92.0902375 42.8871923 112.463397 42.8871923"></polygon>
                            <polygon id="Fill-104" fill-opacity="0.8" points="108.768278 84.3126446 88.3951188 84.3126446 90.1775416 64.3308292 110.550701 64.3308292"></polygon>
                            <polygon id="Fill-105" fill-opacity="0.8" points="88.2433967 86.0181031 86.4609739 105.999918 106.833302 105.999918 108.615724 86.0181031"></polygon>
                            <polygon id="Fill-106" fill-opacity="0.8" points="117.531663 0.000326153846 115.74924 19.9813262 136.121568 19.9813262 137.90399 0.000326153846"></polygon>
                            <polygon id="Fill-107" fill-opacity="0.8" points="134.208955 41.4253708 113.836627 41.4253708 115.61905 21.4435554 135.991378 21.4435554"></polygon>
                            <polygon id="Fill-108" fill-opacity="0.8" points="132.296176 62.8690077 111.923848 62.8690077 113.705439 42.8871923 134.078599 42.8871923"></polygon>
                            <polygon id="Fill-109" fill-opacity="0.8" points="130.38348 84.3126446 110.010321 84.3126446 111.792743 64.3308292 132.165903 64.3308292"></polygon>
                            <polygon id="Fill-110" fill-opacity="0.8" points="109.858682 86.0181031 108.076259 105.999918 128.448587 105.999918 130.23101 86.0181031"></polygon>
                            <polygon id="Fill-111" fill-opacity="0.8" points="139.146948 0.000326153846 137.363694 19.9813262 157.736853 19.9813262 159.519276 0.000326153846"></polygon>
                            <polygon id="Fill-112" fill-opacity="0.8" points="155.824157 41.4253708 135.451829 41.4253708 137.234252 21.4435554 157.60658 21.4435554"></polygon>
                            <polygon id="Fill-113" fill-opacity="0.8" points="153.911378 62.8690077 133.53905 62.8690077 135.320641 42.8871923 155.6938 42.8871923"></polygon>
                            <polygon id="Fill-114" fill-opacity="0.8" points="151.998682 84.3126446 131.625523 84.3126446 133.407945 64.3308292 153.781105 64.3308292"></polygon>
                            <polygon id="Fill-115" fill-opacity="0.8" points="131.473967 86.0181031 129.690713 105.999918 150.063872 105.999918 151.846295 86.0181031"></polygon>
                            <polygon id="Fill-116" fill-opacity="0.8" points="160.762233 0.000326153846 158.978979 19.9813262 179.352138 19.9813262 181.134561 0.000326153846"></polygon>
                            <polygon id="Fill-117" fill-opacity="0.8" points="177.439359 41.4253708 157.067031 41.4253708 158.849454 21.4435554 179.221781 21.4435554"></polygon>
                            <polygon id="Fill-118" fill-opacity="0.8" points="175.52658 62.8690077 155.154252 62.8690077 156.935843 42.8871923 177.309002 42.8871923"></polygon>
                            <polygon id="Fill-119" fill-opacity="0.8" points="173.613884 84.3126446 153.240724 84.3126446 155.023147 64.3308292 175.396306 64.3308292"></polygon>
                            <polygon id="Fill-120" fill-opacity="0.8" points="153.089252 86.0181031 151.305998 105.999918 171.679157 105.999918 173.46158 86.0181031"></polygon>
                            <polygon id="Fill-121" fill-opacity="0.8" points="182.377518 0.000326153846 180.594264 19.9813262 200.967423 19.9813262 202.749846 0.000326153846"></polygon>
                            <polygon id="Fill-122" fill-opacity="0.8" points="199.054561 41.4253708 178.682233 41.4253708 180.464656 21.4435554 200.836983 21.4435554"></polygon>
                            <polygon id="Fill-123" fill-opacity="0.8" points="197.141781 62.8690077 176.769454 62.8690077 178.551045 42.8871923 198.924204 42.8871923"></polygon>
                            <polygon id="Fill-124" fill-opacity="0.8" points="195.229086 84.3126446 174.855926 84.3126446 176.638349 64.3308292 197.011508 64.3308292"></polygon>
                            <polygon id="Fill-125" fill-opacity="0.8" points="174.704537 86.0181031 172.921283 105.999918 193.294442 105.999918 195.076865 86.0181031"></polygon>
                            <polygon id="Fill-126" fill-opacity="0.8" points="203.992055 0.000326153846 202.209632 19.9813262 222.582791 19.9813262 224.365214 0.000326153846"></polygon>
                            <polygon id="Fill-127" fill-opacity="0.8" points="220.669762 41.4253708 200.297435 41.4253708 202.079857 21.4435554 222.452185 21.4435554"></polygon>
                            <polygon id="Fill-128" fill-opacity="0.8" points="218.756983 62.8690077 198.384656 62.8690077 200.166247 42.8871923 220.539406 42.8871923"></polygon>
                            <polygon id="Fill-129" fill-opacity="0.8" points="216.844204 84.3126446 196.471045 84.3126446 198.253468 64.3308292 218.626627 64.3308292"></polygon>
                            <polygon id="Fill-130" fill-opacity="0.8" points="196.319074 86.0181031 194.536651 105.999918 214.908979 105.999918 216.692233 86.0181031"></polygon>
                            <polygon id="Fill-131" fill-opacity="0.8" points="225.60734 0.000326153846 223.824917 19.9813262 244.198076 19.9813262 245.979667 0.000326153846"></polygon>
                            <polygon id="Fill-132" fill-opacity="0.8" points="242.284964 41.4253708 221.912637 41.4253708 223.695059 21.4435554 244.067387 21.4435554"></polygon>
                            <polygon id="Fill-133" fill-opacity="0.8" points="240.372185 62.8690077 219.999857 62.8690077 221.781449 42.8871923 242.154608 42.8871923"></polygon>
                            <polygon id="Fill-134" fill-opacity="0.8" points="238.459406 84.3126446 218.086247 84.3126446 219.86867 64.3308292 240.241829 64.3308292"></polygon>
                            <polygon id="Fill-135" fill-opacity="0.8" points="217.934359 86.0181031 216.151936 105.999918 236.524264 105.999918 238.306686 86.0181031"></polygon>
                            <polygon id="Fill-136" fill-opacity="0.8" points="247.222625 0.000326153846 245.440202 19.9813262 265.813361 19.9813262 267.594952 0.000326153846"></polygon>
                            <polygon id="Fill-137" fill-opacity="0.8" points="263.900166 41.4253708 243.527838 41.4253708 245.310261 21.4435554 265.682589 21.4435554"></polygon>
                            <polygon id="Fill-138" fill-opacity="0.8" points="261.987387 62.8690077 241.615059 62.8690077 243.396651 42.8871923 263.76981 42.8871923"></polygon>
                            <polygon id="Fill-139" fill-opacity="0.8" points="260.074608 84.3126446 239.701449 84.3126446 241.483872 64.3308292 261.857031 64.3308292"></polygon>
                            <polygon id="Fill-140" fill-opacity="0.8" points="239.549644 86.0181031 237.767221 105.999918 258.139549 105.999918 259.921971 86.0181031"></polygon>
                            <polygon id="Fill-141" fill-opacity="0.8" points="268.83791 0.000326153846 267.055487 19.9813262 287.428646 19.9813262 289.210238 0.000326153846"></polygon>
                            <polygon id="Fill-142" fill-opacity="0.8" points="285.515368 41.4253708 265.14304 41.4253708 266.925463 21.4435554 287.297791 21.4435554"></polygon>
                            <polygon id="Fill-143" fill-opacity="0.8" points="283.602589 62.8690077 263.230261 62.8690077 265.011853 42.8871923 285.385012 42.8871923"></polygon>
                            <polygon id="Fill-144" fill-opacity="0.8" points="281.68981 84.3126446 261.316651 84.3126446 263.099074 64.3308292 283.472233 64.3308292"></polygon>
                            <polygon id="Fill-145" fill-opacity="0.8" points="261.164929 86.0181031 259.382506 105.999918 279.754834 105.999918 281.537257 86.0181031"></polygon>
                            <polygon id="Fill-146" fill-opacity="0.8" points="290.453195 0.000326153846 288.670772 19.9813262 309.0431 19.9813262 310.825523 0.000326153846"></polygon>
                            <polygon id="Fill-147" fill-opacity="0.8" points="307.13057 41.4253708 286.758242 41.4253708 288.540665 21.4435554 308.912993 21.4435554"></polygon>
                            <polygon id="Fill-148" fill-opacity="0.8" points="305.217791 62.8690077 284.845463 62.8690077 286.627055 42.8871923 307.000214 42.8871923"></polygon>
                            <polygon id="Fill-149" fill-opacity="0.8" points="303.305012 84.3126446 282.931853 84.3126446 284.714276 64.3308292 305.087435 64.3308292"></polygon>
                            <polygon id="Fill-150" fill-opacity="0.8" points="282.780214 86.0181031 280.997791 105.999918 301.370119 105.999918 303.152542 86.0181031"></polygon>
                            <polygon id="Fill-151" fill-opacity="0.8" points="312.06848 0.000326153846 310.286057 19.9813262 330.658385 19.9813262 332.440808 0.000326153846"></polygon>
                            <polygon id="Fill-152" fill-opacity="0.8" points="328.745772 41.4253708 308.373444 41.4253708 310.155867 21.4435554 330.528195 21.4435554"></polygon>
                            <polygon id="Fill-153" fill-opacity="0.8" points="326.832993 62.8690077 306.460665 62.8690077 308.242257 42.8871923 328.615416 42.8871923"></polygon>
                            <polygon id="Fill-154" fill-opacity="0.8" points="324.920214 84.3126446 304.547055 84.3126446 306.329477 64.3308292 326.702637 64.3308292"></polygon>
                            <polygon id="Fill-155" fill-opacity="0.8" points="304.395499 86.0181031 302.613076 105.999918 322.985404 105.999918 324.767827 86.0181031"></polygon>
                            <polygon id="Fill-156" fill-opacity="0.8" points="333.683765 0.000326153846 331.900511 19.9813262 352.27367 19.9813262 354.056093 0.000326153846"></polygon>
                            <polygon id="Fill-157" fill-opacity="0.8" points="350.360974 41.4253708 329.988646 41.4253708 331.771069 21.4435554 352.143397 21.4435554"></polygon>
                            <polygon id="Fill-158" fill-opacity="0.8" points="348.448195 62.8690077 328.075867 62.8690077 329.857458 42.8871923 350.230618 42.8871923"></polygon>
                            <polygon id="Fill-159" fill-opacity="0.8" points="346.535416 84.3126446 326.162257 84.3126446 327.944679 64.3308292 348.317838 64.3308292"></polygon>
                            <polygon id="Fill-160" fill-opacity="0.8" points="326.010784 86.0181031 324.22753 105.999918 344.600689 105.999918 346.383112 86.0181031"></polygon>
                        </g>
                    </g>
                </g>
            </g>
        </g>
    </g>
</svg>