<?xml version="1.0" encoding="UTF-8"?>
<svg width="34px" height="34px" viewBox="0 0 34 34" version="1.1" xmlns="http://www.w3.org/2000/svg" xmlns:xlink="http://www.w3.org/1999/xlink">
    <!-- Generator: Sketch 55.2 (78181) - https://sketchapp.com -->
    <title>gearIcon</title>
    <desc>Created with Sketch.</desc>
    <g id="Page-1" stroke="none" stroke-width="1" fill="none" fill-rule="evenodd">
        <g id="Desktop-HD" transform="translate(-130.000000, -1156.000000)" fill="#ffffff" fill-rule="nonzero">
            <g id="Group-10" transform="translate(130.000000, 770.000000)">
                <g id="gearIcon" transform="translate(0.000000, 386.000000)">
                    <path d="M23.9258,8.81439508 C23.2303111,8.81439508 22.6666667,9.3783985 22.6666667,10.0734864 L22.6666667,15.740342 L18.2591333,15.740342 L18.2591333,10.0734864 C18.2591333,9.37802073 17.6954889,8.81439508 17,8.81439508 C16.3045111,8.81439508 15.7408667,9.3783985 15.7408667,10.0734864 L15.7408667,15.740342 L11.3333333,15.740342 L11.3333333,10.0734864 C11.3333333,9.37802073 10.7693111,8.81439508 10.0742,8.81439508 C9.37908889,8.81439508 8.81506667,9.3783985 8.81506667,10.0734864 L8.81506667,16.9998111 C8.81506667,17.6952768 8.81506667,22.6659111 8.81506667,23.9253803 C8.81506667,24.5549265 9.22668227,25.1846014 10.0209187,25.1848495 C10.8151551,25.1850974 11.2278532,24.5553032 11.2278532,23.9253803 C11.2278532,23.6671445 11.0982447,18.2589025 11.2278532,18.2589025 C12.2307451,18.2589025 13.7350829,18.2589025 15.7408667,18.2589025 L15.7408667,23.9253803 C15.7408667,24.620846 16.3048889,25.1848495 17,25.1848495 C17.6951111,25.1848495 18.2591333,24.620846 18.2591333,23.9253803 L18.2591333,18.2589025 L22.6666667,18.2589025 L22.6666667,23.9253803 C22.6666667,24.620846 23.2303111,25.1848495 23.9258,25.1848495 C24.6212889,25.1848495 25.1853111,24.620846 25.1853111,23.9253803 L25.1853111,10.0734864 C25.1853111,9.37802073 24.6212889,8.81439508 23.9258,8.81439508 Z M17,0 C7.6262,0 0,7.6259458 0,16.9994334 C0,26.3729209 7.6262,34 17,34 C26.3738,34 34,26.3732987 34,16.9994334 C34,7.6259458 26.3738,0 17,0 Z M17,31.4814395 C9.01491111,31.4814395 2.51864444,24.9853894 2.51864444,16.9994334 C2.51864444,9.01461062 9.01528889,2.51856049 17,2.51856049 C24.9858444,2.51856049 31.4813556,9.01461062 31.4813556,16.9994334 C31.4813556,24.9853894 24.9858444,31.4814395 17,31.4814395 Z" id="Shape"></path>
                </g>
            </g>
        </g>
    </g>
</svg>