<?xml version="1.0" encoding="UTF-8"?>
<svg width="34px" height="28px" viewBox="0 0 34 28" version="1.1" xmlns="http://www.w3.org/2000/svg" xmlns:xlink="http://www.w3.org/1999/xlink">
    <!-- Generator: Sketch 55.2 (78181) - https://sketchapp.com -->
    <title>speedIcon</title>
    <desc>Created with Sketch.</desc>
    <g id="Page-1" stroke="none" stroke-width="1" fill="none" fill-rule="evenodd">
        <g id="Desktop-HD" transform="translate(-130.000000, -833.000000)" fill="#ffffff" fill-rule="nonzero">
            <g id="Group-10" transform="translate(130.000000, 770.000000)">
                <g id="speedIcon" transform="translate(0.000000, 63.000000)">
                    <g id="Group">
                        <path d="M17,0.216277895 C26.3715851,0.216277895 34,7.9313586 34,17.4092702 C34,21.2398667 32.7491109,24.7865825 30.6455357,27.6483298 L28.475,25.6987439 C30.1211586,23.3670316 31.0857143,20.5016 31.0857143,17.4092702 C31.0857143,9.52421474 24.7965789,3.16364632 17,3.16364632 C9.20342114,3.16364632 2.91428571,9.52421474 2.91428571,17.4092702 C2.91428571,20.5016 3.87884143,23.3670316 5.525,25.6987439 L3.35446429,27.6483298 C1.25088914,24.7865825 0,21.2398667 0,17.4092702 C0,7.9313586 7.62841486,0.216277895 17,0.216277895 Z M10.9285714,11.1921796 L19.1098214,20.6022526 C19.7804714,21.7770246 19.375852,23.2858316 18.2142857,23.9641193 C17.0527146,24.6423579 15.5608286,24.2331649 14.8901786,23.058393 L10.9285714,11.1921796 Z" id="Shape"></path>
                    </g>
                </g>
            </g>
        </g>
    </g>
</svg>